<svg width="208" height="34" viewBox="0 0 208 34" fill="none" xmlns="http://www.w3.org/2000/svg">
<path d="M12.8 33.4C10.96 33.4 9.29333 33.1867 7.8 32.76C6.33333 32.3067 5.02667 31.6667 3.88 30.84C2.73333 29.9867 1.70667 28.9867 0.8 27.84L4.92 23.16C6.25333 24.9467 7.58667 26.1467 8.92 26.76C10.28 27.3733 11.68 27.68 13.12 27.68C13.84 27.68 14.4933 27.5867 15.08 27.4C15.6667 27.2133 16.12 26.9467 16.44 26.6C16.76 26.2267 16.92 25.7733 16.92 25.24C16.92 24.84 16.8133 24.48 16.6 24.16C16.4133 23.84 16.1467 23.56 15.8 23.32C15.4533 23.08 15.04 22.8667 14.56 22.68C14.08 22.4667 13.5733 22.2933 13.04 22.16C12.5067 22 11.96 21.8667 11.4 21.76C9.85333 21.4133 8.50667 20.9867 7.36 20.48C6.21333 19.9733 5.25333 19.36 4.48 18.64C3.73333 17.8933 3.17333 17.0533 2.8 16.12C2.42667 15.16 2.24 14.0933 2.24 12.92C2.24 11.6667 2.52 10.52 3.08 9.48C3.66667 8.41333 4.44 7.50667 5.4 6.76C6.38667 5.98666 7.52 5.4 8.8 5C10.08 4.57333 11.4133 4.36 12.8 4.36C14.64 4.36 16.2133 4.56 17.52 4.96C18.8533 5.33333 19.9867 5.88 20.92 6.6C21.88 7.32 22.6933 8.18667 23.36 9.2L19.16 13.24C18.6 12.5467 17.9867 11.9733 17.32 11.52C16.68 11.0667 15.9867 10.72 15.24 10.48C14.52 10.24 13.7733 10.12 13 10.12C12.2 10.12 11.5067 10.2267 10.92 10.44C10.36 10.6267 9.92 10.9067 9.6 11.28C9.28 11.6267 9.12 12.0533 9.12 12.56C9.12 13.0133 9.25333 13.4 9.52 13.72C9.78667 14.04 10.1467 14.3333 10.6 14.6C11.0533 14.84 11.5733 15.0533 12.16 15.24C12.7467 15.4 13.36 15.5333 14 15.64C15.4667 15.9333 16.7867 16.32 17.96 16.8C19.16 17.28 20.1867 17.8667 21.04 18.56C21.92 19.2533 22.5867 20.08 23.04 21.04C23.52 21.9733 23.76 23.0667 23.76 24.32C23.76 26.2667 23.28 27.92 22.32 29.28C21.3867 30.6133 20.0933 31.64 18.44 32.36C16.8133 33.0533 14.9333 33.4 12.8 33.4ZM34.3516 26.76L31.9916 21.96L41.9116 11.76H50.3516L34.3516 26.76ZM28.1916 33V3.4H34.5916V33H28.1916ZM42.5916 33L35.1116 23.32L39.6316 19.8L50.1516 33H42.5916ZM53.5906 33V11.76H59.9906V33H53.5906ZM56.7906 7.56C55.5906 7.56 54.644 7.28 53.9506 6.72C53.284 6.13333 52.9506 5.30667 52.9506 4.24C52.9506 3.28 53.2973 2.49333 53.9906 1.88C54.684 1.26666 55.6173 0.959998 56.7906 0.959998C57.9906 0.959998 58.924 1.25333 59.5906 1.84C60.2573 2.4 60.5906 3.2 60.5906 4.24C60.5906 5.22667 60.244 6.02667 59.5506 6.64C58.884 7.25333 57.964 7.56 56.7906 7.56ZM66.0441 33V3.4H72.4441V33H66.0441ZM78.1925 33V3.4H84.5925V33H78.1925Z" fill="#2608DF"/>
<path d="M91.1009 33V5H96.5809L106.781 21.6L103.181 21.56L113.501 5H118.741V33H112.861V23.4C112.861 21 112.914 18.84 113.021 16.92C113.154 15 113.368 13.0933 113.661 11.2L114.381 13.08L106.181 25.8H103.541L95.5009 13.16L96.1809 11.2C96.4743 12.9867 96.6743 14.8267 96.7809 16.72C96.9143 18.5867 96.9809 20.8133 96.9809 23.4V33H91.1009ZM133.143 33.4C131.383 33.4 129.796 32.92 128.383 31.96C126.969 31 125.849 29.6933 125.023 28.04C124.196 26.3867 123.783 24.4933 123.783 22.36C123.783 20.2267 124.196 18.3467 125.023 16.72C125.876 15.0667 127.023 13.7733 128.463 12.84C129.903 11.88 131.543 11.4 133.383 11.4C134.423 11.4 135.369 11.56 136.223 11.88C137.103 12.1733 137.863 12.5867 138.503 13.12C139.169 13.6533 139.729 14.2667 140.183 14.96C140.636 15.6533 140.956 16.4 141.143 17.2L139.943 17V11.84H145.583V33H139.863V27.92L141.143 27.8C140.929 28.5467 140.583 29.2533 140.103 29.92C139.623 30.5867 139.023 31.1867 138.303 31.72C137.609 32.2267 136.823 32.64 135.943 32.96C135.063 33.2533 134.129 33.4 133.143 33.4ZM134.703 28.48C135.769 28.48 136.703 28.2267 137.503 27.72C138.303 27.2133 138.916 26.5067 139.343 25.6C139.796 24.6667 140.023 23.5867 140.023 22.36C140.023 21.16 139.796 20.1067 139.343 19.2C138.916 18.2933 138.303 17.5867 137.503 17.08C136.703 16.5467 135.769 16.28 134.703 16.28C133.663 16.28 132.743 16.5467 131.943 17.08C131.169 17.5867 130.556 18.2933 130.103 19.2C129.649 20.1067 129.423 21.16 129.423 22.36C129.423 23.5867 129.649 24.6667 130.103 25.6C130.556 26.5067 131.169 27.2133 131.943 27.72C132.743 28.2267 133.663 28.48 134.703 28.48ZM153.318 33V6.48H158.997V33H153.318ZM149.358 16.92V11.84H163.318V16.92H149.358ZM176.024 33.4C173.998 33.4 172.184 32.92 170.584 31.96C168.984 31 167.718 29.6933 166.784 28.04C165.878 26.3867 165.424 24.5067 165.424 22.4C165.424 20.32 165.878 18.4533 166.784 16.8C167.718 15.12 168.984 13.8 170.584 12.84C172.184 11.88 173.998 11.4 176.024 11.4C177.918 11.4 179.651 11.7467 181.224 12.44C182.798 13.1333 184.024 14.0933 184.904 15.32L181.784 19.08C181.411 18.5733 180.944 18.12 180.384 17.72C179.824 17.2933 179.211 16.96 178.544 16.72C177.904 16.48 177.238 16.36 176.544 16.36C175.451 16.36 174.478 16.6267 173.624 17.16C172.798 17.6667 172.144 18.3733 171.664 19.28C171.184 20.1867 170.944 21.2267 170.944 22.4C170.944 23.5467 171.184 24.5733 171.664 25.48C172.171 26.36 172.851 27.08 173.704 27.64C174.558 28.1733 175.518 28.44 176.584 28.44C177.278 28.44 177.931 28.3467 178.544 28.16C179.158 27.9467 179.731 27.64 180.264 27.24C180.824 26.84 181.331 26.36 181.784 25.8L184.864 29.56C183.958 30.7067 182.704 31.64 181.104 32.36C179.504 33.0533 177.811 33.4 176.024 33.4ZM188.504 33V3.4H194.104V16.16L192.984 16.64C193.277 15.68 193.797 14.8133 194.544 14.04C195.317 13.24 196.237 12.6 197.304 12.12C198.371 11.64 199.491 11.4 200.664 11.4C202.264 11.4 203.597 11.72 204.664 12.36C205.757 13 206.571 13.9733 207.104 15.28C207.664 16.56 207.944 18.1467 207.944 20.04V33H202.264V20.48C202.264 19.52 202.131 18.72 201.864 18.08C201.597 17.44 201.184 16.9733 200.624 16.68C200.091 16.36 199.424 16.2267 198.624 16.28C197.984 16.28 197.384 16.3867 196.824 16.6C196.291 16.7867 195.824 17.0667 195.424 17.44C195.051 17.8133 194.744 18.24 194.504 18.72C194.291 19.2 194.184 19.72 194.184 20.28V33H191.384C190.771 33 190.224 33 189.744 33C189.264 33 188.851 33 188.504 33Z" fill="black"/>
</svg>
